<svg xmlns="http://www.w3.org/2000/svg" xmlns:xlink="http://www.w3.org/1999/xlink" xmlns:lucid="lucid" width="1702.01" height="2000"><g transform="translate(-57.987654320987644 -60)" lucid:page-tab-id="0_0"><path d="M0 0h1870.87v2581.67H0z" fill="#fff"/><path d="M440 446c0-3.3 2.7-6 6-6h988c3.3 0 6 2.7 6 6v1588c0 3.3-2.7 6-6 6H446c-3.3 0-6-2.7-6-6z" stroke="#5e5e5e" stroke-width="3" fill-opacity="0"/><use xlink:href="#a" transform="matrix(1,0,0,1,448,448) translate(425.3240740740741 33.777777777777764)"/><path d="M339.75 619.75c0 10.9-8.84 19.75-19.75 19.75-10.9 0-19.75-8.84-19.75-19.75 0-10.9 8.84-19.75 19.75-19.75 10.9 0 19.75 8.84 19.75 19.75z" stroke="#5e5e5e" stroke-width="4" fill="#fff"/><path d="M320 639.5v49.3c0 3.3 1.44 8.27 3.2 11.07L360 758m-40-63.2L280 758m0-98.75h80" stroke="#5e5e5e" stroke-width="4" fill="none"/><path d="M280 606c0-3.3 2.7-6 6-6h68c3.3 0 6 2.7 6 6v168c0 3.3-2.7 6-6 6h-68c-3.3 0-6-2.7-6-6z" fill="none"/><use xlink:href="#b" transform="matrix(1,0,0,1,200,758) translate(77.74074074074073 24.888888888888893)"/><path d="M179.75 959.75c0 10.9-8.84 19.75-19.75 19.75-10.9 0-19.75-8.84-19.75-19.75 0-10.9 8.84-19.75 19.75-19.75 10.9 0 19.75 8.84 19.75 19.75z" stroke="#5e5e5e" stroke-width="4" fill="#fff"/><path d="M160 979.5v49.3c0 3.3 1.44 8.27 3.2 11.07L200 1098m-40-63.2l-40 63.2m0-98.75h80" stroke="#5e5e5e" stroke-width="4" fill="none"/><path d="M120 946c0-3.3 2.7-6 6-6h68c3.3 0 6 2.7 6 6v168c0 3.3-2.7 6-6 6h-68c-3.3 0-6-2.7-6-6z" fill="none"/><use xlink:href="#c" transform="matrix(1,0,0,1,40,1098) translate(37.987654320987644 24.888888888888893)"/><path d="M700 620c0 33.14-35.82 60-80 60s-80-26.86-80-60 35.82-60 80-60 80 26.86 80 60z" stroke="#5e5e5e" stroke-width="3" fill="#fff"/><use xlink:href="#d" transform="matrix(1,0,0,1,540,560) translate(25.98987654320989 68.09444444444443)"/><path d="M362.44 659.45l173.62-38.9" stroke="#5e5e5e" stroke-width="5" fill="none"/><path d="M363.05 661.88l-5.43 1.22-.4-1.85H360v-3.8l1.96-.45zM538.5 619.98v.43l.1 2.14-2.06.46-1.1-4.88 3.14-.7z" fill="#5e5e5e"/><path d="M1010 790c0 38.66-38.05 70-85 70-46.94 0-85-31.34-85-70s38.06-70 85-70c46.95 0 85 31.34 85 70z" stroke="#5e5e5e" stroke-width="3" fill="#fff"/><use xlink:href="#e" transform="matrix(1,0,0,1,840.0000000000002,720) translate(40.97444444444446 60.886111111111106)"/><use xlink:href="#f" transform="matrix(1,0,0,1,840.0000000000002,720) translate(59.68462962962964 93.15277777777776)"/><path d="M1120 620c0 33.14-35.82 60-80 60s-80-26.86-80-60 35.82-60 80-60 80 26.86 80 60z" stroke="#5e5e5e" stroke-width="3" fill="#fff"/><use xlink:href="#g" transform="matrix(1,0,0,1,960,560) translate(32.335555555555565 64.53888888888889)"/><path d="M724.45 622H703.5v-4h20.95zm34.65 0h-13.7v-4h13.7zm195.76 0h-20.94v-4h20.94zm-41.9 0H900.9v-4h12.07z" fill="#5e5e5e"/><path d="M703.55 622h-2.1l.05-1.98v-.43l-.06-1.6h2.1zM958.5 620l-20.13 11.9-2.03-3.44 14.3-8.46-14.3-8.46 2.03-3.44z" fill="#5e5e5e"/><use xlink:href="#h" transform="matrix(1,0,0,1,759.104938271605,606.6666666666666) translate(0 17.77777777777778)"/><path d="M1630 660c0 11.05-8.95 20-20 20s-20-8.95-20-20 8.95-20 20-20 20 8.95 20 20z" stroke="#5e5e5e" stroke-width="4" fill="#fff"/><path d="M1610 680v60.8c0 3.3 1.32 8.34 2.94 11.23L1650 818m-40-71.2l-40 71.2m0-118h80" stroke="#5e5e5e" stroke-width="4" fill="none"/><path d="M1570 646c0-3.3 2.7-6 6-6h68c3.3 0 6 2.7 6 6v188c0 3.3-2.7 6-6 6h-68c-3.3 0-6-2.7-6-6z" fill="none"/><use xlink:href="#i" transform="matrix(1,0,0,1,1490,818) translate(64.77777777777777 24.888888888888893)"/><path d="M1123.96 620.45l448.3 81.1" stroke="#5e5e5e" stroke-width="5" fill="none"/><path d="M1124.47 618l-.9 4.92-2.15-.4.08-2.5v-.43l-.1-2.16z" fill="#5e5e5e"/><path d="M1572.2 701.54l5.47 1" stroke="#5e5e5e" stroke-width="5" fill="none"/><path d="M845 1940c0 33.14-35.82 60-80 60-44.2 0-80-26.86-80-60s35.8-60 80-60c44.18 0 80 26.86 80 60z" stroke="#5e5e5e" stroke-width="3" fill="#fff"/><use xlink:href="#j" transform="matrix(1,0,0,1,684.9939012948021,1880) translate(36.53000000000001 66.31666666666666)"/><path d="M684.58 1936.63l-4.45 2.3-481.2-937.8 4.44-2.3z" fill="#5e5e5e"/><path d="M203.4 998.9l-3.4 1.73v-3.38h-3.07l-.52-1.03 4.45-2.28zM683.5 1939.98v.43l.1 2.9-.96.5-2.54-4.94 3.48-1.8zM837.6 787.32l-1.78 3.58-17.8-8.83 1.8-3.58zm-35.58-17.67l-1.78 3.6-28.3-14.07h9zm-74.8-37.14h-9l-6.9-3.43 1.76-3.58zm-31.92-15.84l-1.78 3.58-35.58-17.67 1.78-3.58zm-53.37-26.5l-1.77 3.58-17.8-8.83 1.8-3.57z" fill="#5e5e5e"/><path d="M643.6 683.78l-16.56 1.2 9.05 13.95-3.37 2.18L620 681.5l23.32-1.7zM838.56 787.8l-.06 2.2.05 2.26-2.78-1.38 1.78-3.58z" fill="#5e5e5e"/><use xlink:href="#k" transform="matrix(1,0,0,1,681.771804518671,732.5122056461856) translate(0 17.77777777777778)"/><path d="M1632.25 1822.25c0 12.3-9.96 22.25-22.25 22.25-12.3 0-22.25-9.96-22.25-22.25 0-12.3 9.96-22.25 22.25-22.25 12.3 0 22.25 9.96 22.25 22.25z" stroke="#5e5e5e" stroke-width="4" fill="#fff"/><path d="M1610 1844.5v56.3c0 3.3 1.54 8.2 3.45 10.9L1660 1978m-50-71.2l-50 71.2m0-111.25h100" stroke="#5e5e5e" stroke-width="4" fill="none"/><path d="M1560 1806c0-3.3 2.7-6 6-6h88c3.3 0 6 2.7 6 6v188c0 3.3-2.7 6-6 6h-88c-3.3 0-6-2.7-6-6z" fill="none"/><use xlink:href="#l" transform="matrix(1,0,0,1,1480,1978) translate(64.4074074074074 24.888888888888893)"/><path d="M848.98 1939.74l708.53-72.82" stroke="#5e5e5e" stroke-width="5" fill="none"/><path d="M849.3 1942.22l-2.88.3.07-2.5v-.43l-.1-2.1 2.4-.25zM1562.82 1864.75H1560v4h3.23v.1l-5.53.57-.5-4.98 5.53-.57z" fill="#5e5e5e"/><path d="M1719.75 1119.75c0 10.9-8.84 19.75-19.75 19.75-10.9 0-19.75-8.84-19.75-19.75 0-10.9 8.84-19.75 19.75-19.75 10.9 0 19.75 8.84 19.75 19.75z" stroke="#5e5e5e" stroke-width="4" fill="#fff"/><path d="M1700 1139.5v49.3c0 3.3 1.44 8.27 3.2 11.07L1740 1258m-40-63.2l-40 63.2m0-98.75h80" stroke="#5e5e5e" stroke-width="4" fill="none"/><path d="M1660 1106c0-3.3 2.7-6 6-6h68c3.3 0 6 2.7 6 6v168c0 3.3-2.7 6-6 6h-68c-3.3 0-6-2.7-6-6z" fill="none"/><use xlink:href="#m" transform="matrix(1,0,0,1,1580,1258) translate(83.74691358024691 24.888888888888893)"/><path d="M860 1600c0 33.14-35.82 60-80 60s-80-26.86-80-60 35.82-60 80-60 80 26.86 80 60z" stroke="#5e5e5e" stroke-width="3" fill="#fff"/><use xlink:href="#n" transform="matrix(1,0,0,1,700,1540) translate(23.480925925925945 64.53888888888889)"/><path d="M696.9 1598.07l-495.3-598.4" stroke="#5e5e5e" stroke-width="5" fill="none"/><path d="M698.6 1597.04l-.1 2.94v.43l.12 2.94.04.42-.17.15-3.56-4.28 3.7-3.06zM199.7 1001.32l-.05-.07h.14zm3.86-3.2l-3.56 2.96v-3.83h-3.66l-.18-.22 3.85-3.2z" fill="#5e5e5e"/><path d="M1310 1400c0 33.14-42.52 60-95 60-52.46 0-95-26.86-95-60s42.54-60 95-60c52.48 0 95 26.86 95 60z" stroke="#5e5e5e" stroke-width="3" fill="#fff"/><use xlink:href="#o" transform="matrix(1,0,0,1,1120,1340) translate(47.375987654321 64.53888888888889)"/><path d="M878.15 1567.93l-18.4 9.24-1.8-3.58 18.4-9.24zm55.22-27.7l-36.8 18.47-1.8-3.57 36.8-18.47zm18.4-9.23l-1.8-3.57 7.17-3.6h8.93zm92.03-46.16l-8.63 4.33h-8.92l15.76-7.9zm55.22-27.7l-36.8 18.47-1.8-3.57 36.8-18.46zm36.8-18.46l-18.4 9.23-1.8-3.56 18.4-9.24z" fill="#5e5e5e"/><path d="M871.62 1559.5l-9 14 16.58 1.13-.27 4-23.33-1.62 12.65-19.65zM1135.97 1435.35l2.4 2.06-2.6 1.3-1.78-3.57 1.13-.58z" fill="#5e5e5e"/><use xlink:href="#p" transform="matrix(1,0,0,1,916.0328541324226,1489.1686704858969) translate(0 23.11111111111111)"/><path d="M1313.57 1398.58l344.37-238.16" stroke="#5e5e5e" stroke-width="5" fill="none"/><path d="M1315.04 1400.6l-3.66 2.53.08-1.02.05-2.1-.03-1.8-.08-1.15.8-.56zM1662.44 1157.25H1660v4h1.14l-1.83 1.26-2.83-4.1 4.58-3.16z" fill="#5e5e5e"/><path d="M960 1038.5c0 33.14-35.82 60-80 60s-80-26.86-80-60 35.82-60 80-60 80 26.86 80 60z" stroke="#5e5e5e" stroke-width="3" fill="#fff"/><use xlink:href="#q" transform="matrix(1,0,0,1,800,978.4999871690889) translate(47.659320987654326 49.538888888888884)"/><use xlink:href="#r" transform="matrix(1,0,0,1,800,978.4999871690889) translate(36.378765432098774 84.4722222222222)"/><path d="M796 1038.33l-593.5-40.4" stroke="#5e5e5e" stroke-width="5" fill="none"/><path d="M798.58 1036l-.08 2.48v.43l.08 2.1-2.8-.18.33-5zM202.73 995.43l-.34 5-2.4-.17v-3h-2.97l.15-2.2zM786.02 1514.8l-4.78 20.64-3.9-.9 4.78-20.63zm14.32-61.85l-9.55 41.24-3.9-.9 9.54-41.25zm14.32-61.86l-9.55 41.23-3.9-.9 9.56-41.24zm4.77-20.63l-3.9-.9 7.95-34.3h4.1zm23.87-103.1l-8.3 35.9h-4.1l8.5-36.8zm14.33-61.87l-9.55 41.24-3.9-.9 9.55-41.24zm14.32-61.86l-9.55 41.24-3.9-.9 9.55-41.24zm9.55-41.24l-4.78 20.62-3.9-.9 4.78-20.62z" fill="#5e5e5e"/><path d="M879.98 1100h.95l1.13-.05-.57 2.5-3.9-.9.36-1.6zM780.25 1530.87l11.46-12.03 2.9 2.76-16.13 16.93-7.05-22.3 3.8-1.2z" fill="#5e5e5e"/><use xlink:href="#s" transform="matrix(1,0,0,1,755.273410772652,1303.2636326798404) translate(0 21.33333333333333)"/><path d="M1220 840c0 33.14-35.82 60-80 60s-80-26.86-80-60 35.82-60 80-60 80 26.86 80 60z" stroke="#5e5e5e" stroke-width="3" fill="#fff"/><use xlink:href="#t" transform="matrix(1,0,0,1,1060,780) translate(24.24913580246914 64.53888888888889)"/><path d="M1223.83 839.1l348.56-136.2" stroke="#5e5e5e" stroke-width="5" fill="none"/><path d="M1224.8 841.4l-3.38 1.32.08-2.7v-.43l-.1-2.25 1.58-.6z" fill="#5e5e5e"/><path d="M1572.33 702.93l5.18-2.02M1092.67 892.18l-207.44 83.97" stroke="#5e5e5e" stroke-width="5" fill="none"/><path d="M1092.23 889.85l4.86 2.46.92.4-4.48 1.82-1.87-4.63.37-.16zM885.7 977.18l-5.68-.18h-.38l-.45-1.1 5.15-2.1z" fill="#5e5e5e"/><path d="M1200.02 1240c0 33.14-42.54 60-95 60-52.48 0-95-26.86-95-60s42.52-60 95-60c52.46 0 95 26.86 95 60z" stroke="#5e5e5e" stroke-width="3" fill="#fff"/><use xlink:href="#u" transform="matrix(1,0,0,1,1010.0079774661203,1180) translate(37.71271604938273 64.53888888888889)"/><use xlink:href="#v" transform="matrix(1,0,0,1,1010.0079774661203,1180) translate(119.9516049382716 64.53888888888889)"/><path d="M1006.83 1236.9l-1.43 4.78-803.72-240.82 1.43-4.8z" fill="#5e5e5e"/><path d="M1008.6 1237.42l-.04.47-.05 2.1.05 1.8.06.84-3.27-.98 1.44-4.8zM203.17 996.1l-1.43 4.78-1.74-.52v-3.1h-2.98l.82-2.77z" fill="#5e5e5e"/><path d="M1203.98 1239.57l453.56-80.14" stroke="#5e5e5e" stroke-width="5" fill="none"/><path d="M1204.48 1242.02l-3.05.53.04-.44.05-2.1-.04-1.8-.05-.72 2.18-.4zM1662.74 1157.25H1660v4h1.63l-3.72.66-.86-4.92 5.48-.96zM832.88 1529.66l-16 13.26-2.55-3.08 16-13.26zm47.97-39.76l-31.98 26.5-2.55-3.07 31.98-26.5zm47.98-39.77l-31.98 26.5-2.56-3.07 31.98-26.5zm95.96-79.53l-32 26.5-2.55-3.07 31.98-26.5zm47.97-39.77l-32 26.5-2.54-3.07 31.98-26.5zm31.98-26.5l-16 13.24-2.54-3.08 16-13.26z" fill="#5e5e5e"/><path d="M824.47 1523.04l-5.6 15.65 16.4-2.63.63 3.95-23.1 3.68 7.9-22zM1104.7 1304.35l-2.4-2.92 2.7.07 3.23-.07z" fill="#5e5e5e"/><use xlink:href="#s" transform="matrix(1,0,0,1,884.9472755831193,1406.6002189241808) translate(0 21.33333333333333)"/><path d="M762.6 1876.46l-4 .36-1.6-18.26 3.97-.36zm-3.25-36.52l-4 .36-3.24-36.52 4-.36zm-4.88-54.78l-3.98.36-.06-.6h4zm-4.87-54.78l-4 .36-3.24-36.52 4-.36zm-4.88-54.78l-3.98.36-1.63-18.26 4-.36z" fill="#5e5e5e"/><path d="M754.42 1672.9l-3.25 2.32-9.7-13.5-7.15 15-3.6-1.72 10.06-21.1zM762.78 1878.55l-4 .16-.17-1.93 4-.36z" fill="#5e5e5e"/><use xlink:href="#w" transform="matrix(1,0,0,1,664.4938860854738,1747.5977443405582) translate(0 24.888888888888886)"/><path d="M1652.25 1522.25c0 12.3-9.96 22.25-22.25 22.25-12.3 0-22.25-9.96-22.25-22.25 0-12.3 9.96-22.25 22.25-22.25 12.3 0 22.25 9.96 22.25 22.25z" stroke="#5e5e5e" stroke-width="4" fill="#fff"/><path d="M1630 1544.5v56.3c0 3.3 1.54 8.2 3.45 10.9L1680 1678m-50-71.2l-50 71.2m0-111.25h100" stroke="#5e5e5e" stroke-width="4" fill="none"/><path d="M1580 1506c0-3.3 2.7-6 6-6h88c3.3 0 6 2.7 6 6v188c0 3.3-2.7 6-6 6h-88c-3.3 0-6-2.7-6-6z" fill="none"/><use xlink:href="#x" transform="matrix(1,0,0,1,1500,1678) translate(73.04938271604938 24.888888888888893)"/><use xlink:href="#y" transform="matrix(1,0,0,1,1500,1678) translate(57.49382716049382 62.222222222222236)"/><path d="M864 1599.9l713.5-31.54" stroke="#5e5e5e" stroke-width="5" fill="none"/><path d="M864.17 1602.38l-2.75.13.08-2.48v-.43l-.08-2.1 2.53-.1zM1580 1568.75h3.03l.08 1.87-5.55.24-.22-5 2.67-.1zM1103.7 1174.56l-2.7 2.93-15.54-14.47 2.72-2.92zm-31.05-28.9l-2.72 2.92-21.18-19.7h5.87zm-55.3-51.45h-5.86l-19.23-17.88 2.72-2.92zm-37.9-35.26l-2.72 2.93-15.53-14.45 2.73-2.93z" fill="#5e5e5e"/><path d="M1105 1178.5l-22.83-5 .86-3.9 16.23 3.55-4.7-15.94 3.83-1.12zM963.96 1044.53l-2.72 2.93-.52-.48.4-2.6.23-2.3z" fill="#5e5e5e"/><g><use xlink:href="#p" transform="matrix(1,0,0,1,952.9305956893892,1094.2133482262657) translate(0 23.11111111111111)"/></g><path d="M498.16 80h874.55v94.58H498.17z" fill="none"/><g><use xlink:href="#z" transform="matrix(1,0,0,1,498.1556968239904,80) translate(146.83333333333326 64)"/><use xlink:href="#A" transform="matrix(1,0,0,1,498.1556968239904,80) translate(443.9444444444444 64)"/><use xlink:href="#B" transform="matrix(1,0,0,1,498.1556968239904,80) translate(109.05555555555554 160)"/><use xlink:href="#C" transform="matrix(1,0,0,1,498.1556968239904,80) translate(277.72222222222223 160)"/><use xlink:href="#D" transform="matrix(1,0,0,1,498.1556968239904,80) translate(490.83333333333337 160)"/></g><defs><path fill="#333" d="M212-179c-10-28-35-45-73-45-59 0-87 40-87 99 0 60 29 101 89 101 43 0 62-24 78-52l27 14C228-24 195 4 139 4 59 4 22-46 18-125c-6-104 99-153 187-111 19 9 31 26 39 46" id="E"/><path fill="#333" d="M106-169C34-169 62-67 57 0H25v-261h32l-1 103c12-21 28-36 61-36 89 0 53 116 60 194h-32v-121c2-32-8-49-39-48" id="F"/><path fill="#333" d="M141-36C126-15 110 5 73 4 37 3 15-17 15-53c-1-64 63-63 125-63 3-35-9-54-41-54-24 1-41 7-42 31l-33-3c5-37 33-52 76-52 45 0 72 20 72 64v82c-1 20 7 32 28 27v20c-31 9-61-2-59-35zM48-53c0 20 12 33 32 33 41-3 63-29 60-74-43 2-92-5-92 41" id="G"/><path fill="#333" d="M114-163C36-179 61-72 57 0H25l-1-190h30c1 12-1 29 2 39 6-27 23-49 58-41v29" id="H"/><path fill="#333" d="M24-231v-30h32v30H24zM24 0v-190h32V0H24" id="I"/><path fill="#333" d="M59-47c-2 24 18 29 38 22v24C64 9 27 4 27-40v-127H5v-23h24l9-43h21v43h35v23H59v120" id="J"/><path fill="#333" d="M179-190L93 31C79 59 56 82 12 73V49c39 6 53-20 64-50L1-190h34L92-34l54-156h33" id="K"/><g id="a"><use transform="matrix(0.1172839506172839,0,0,0.1172839506172839,0,0)" xlink:href="#E"/><use transform="matrix(0.1172839506172839,0,0,0.1172839506172839,30.37654320987653,0)" xlink:href="#F"/><use transform="matrix(0.1172839506172839,0,0,0.1172839506172839,53.833333333333314,0)" xlink:href="#G"/><use transform="matrix(0.1172839506172839,0,0,0.1172839506172839,77.2901234567901,0)" xlink:href="#H"/><use transform="matrix(0.1172839506172839,0,0,0.1172839506172839,91.24691358024688,0)" xlink:href="#I"/><use transform="matrix(0.1172839506172839,0,0,0.1172839506172839,100.51234567901231,0)" xlink:href="#J"/><use transform="matrix(0.1172839506172839,0,0,0.1172839506172839,112.2407407407407,0)" xlink:href="#K"/></g><path fill="#333" d="M30-248c118-7 216 8 213 122C240-48 200 0 122 0H30v-248zM63-27c89 8 146-16 146-99s-60-101-146-95v194" id="L"/><path fill="#333" d="M100-194c62-1 85 37 85 99 1 63-27 99-86 99S16-35 15-95c0-66 28-99 85-99zM99-20c44 1 53-31 53-75 0-43-8-75-51-75s-53 32-53 75 10 74 51 75" id="M"/><path fill="#333" d="M117-194c89-4 53 116 60 194h-32v-121c0-31-8-49-39-48C34-167 62-67 57 0H25l-1-190h30c1 10-1 24 2 32 11-22 29-35 61-36" id="N"/><g id="b"><use transform="matrix(0.08641975308641976,0,0,0.08641975308641976,0,0)" xlink:href="#L"/><use transform="matrix(0.08641975308641976,0,0,0.08641975308641976,22.38271604938272,0)" xlink:href="#M"/><use transform="matrix(0.08641975308641976,0,0,0.08641975308641976,39.66666666666667,0)" xlink:href="#N"/><use transform="matrix(0.08641975308641976,0,0,0.08641975308641976,56.95061728395062,0)" xlink:href="#M"/><use transform="matrix(0.08641975308641976,0,0,0.08641975308641976,74.23456790123457,0)" xlink:href="#H"/></g><path fill="#333" d="M240 0l2-218c-23 76-54 145-80 218h-23L58-218 59 0H30v-248h44l77 211c21-75 51-140 76-211h43V0h-30" id="O"/><path fill="#333" d="M177-190C167-65 218 103 67 71c-23-6-38-20-44-43l32-5c15 47 100 32 89-28v-30C133-14 115 1 83 1 29 1 15-40 15-95c0-56 16-97 71-98 29-1 48 16 59 35 1-10 0-23 2-32h30zM94-22c36 0 50-32 50-73 0-42-14-75-50-75-39 0-46 34-46 75s6 73 46 73" id="P"/><path fill="#333" d="M210-169c-67 3-38 105-44 169h-31v-121c0-29-5-50-35-48C34-165 62-65 56 0H25l-1-190h30c1 10-1 24 2 32 10-44 99-50 107 0 11-21 27-35 58-36 85-2 47 119 55 194h-31v-121c0-29-5-49-35-48" id="Q"/><path fill="#333" d="M100-194c63 0 86 42 84 106H49c0 40 14 67 53 68 26 1 43-12 49-29l28 8c-11 28-37 45-77 45C44 4 14-33 15-96c1-61 26-98 85-98zm52 81c6-60-76-77-97-28-3 7-6 17-6 28h103" id="R"/><g id="c"><use transform="matrix(0.08641975308641976,0,0,0.08641975308641976,0,0)" xlink:href="#O"/><use transform="matrix(0.08641975308641976,0,0,0.08641975308641976,25.83950617283951,0)" xlink:href="#G"/><use transform="matrix(0.08641975308641976,0,0,0.08641975308641976,43.12345679012346,0)" xlink:href="#N"/><use transform="matrix(0.08641975308641976,0,0,0.08641975308641976,60.407407407407426,0)" xlink:href="#G"/><use transform="matrix(0.08641975308641976,0,0,0.08641975308641976,77.69135802469137,0)" xlink:href="#P"/><use transform="matrix(0.08641975308641976,0,0,0.08641975308641976,94.97530864197532,0)" xlink:href="#Q"/><use transform="matrix(0.08641975308641976,0,0,0.08641975308641976,120.81481481481482,0)" xlink:href="#R"/><use transform="matrix(0.08641975308641976,0,0,0.08641975308641976,138.0987654320988,0)" xlink:href="#N"/><use transform="matrix(0.08641975308641976,0,0,0.08641975308641976,155.38271604938274,0)" xlink:href="#J"/></g><path d="M30-248c118-7 216 8 213 122C240-48 200 0 122 0H30v-248zM63-27c89 8 146-16 146-99s-60-101-146-95v194" id="S"/><path d="M100-194c62-1 85 37 85 99 1 63-27 99-86 99S16-35 15-95c0-66 28-99 85-99zM99-20c44 1 53-31 53-75 0-43-8-75-51-75s-53 32-53 75 10 74 51 75" id="T"/><path d="M117-194c89-4 53 116 60 194h-32v-121c0-31-8-49-39-48C34-167 62-67 57 0H25l-1-190h30c1 10-1 24 2 32 11-22 29-35 61-36" id="U"/><path d="M141-36C126-15 110 5 73 4 37 3 15-17 15-53c-1-64 63-63 125-63 3-35-9-54-41-54-24 1-41 7-42 31l-33-3c5-37 33-52 76-52 45 0 72 20 72 64v82c-1 20 7 32 28 27v20c-31 9-61-2-59-35zM48-53c0 20 12 33 32 33 41-3 63-29 60-74-43 2-92-5-92 41" id="V"/><path d="M59-47c-2 24 18 29 38 22v24C64 9 27 4 27-40v-127H5v-23h24l9-43h21v43h35v23H59v120" id="W"/><path d="M100-194c63 0 86 42 84 106H49c0 40 14 67 53 68 26 1 43-12 49-29l28 8c-11 28-37 45-77 45C44 4 14-33 15-96c1-61 26-98 85-98zm52 81c6-60-76-77-97-28-3 7-6 17-6 28h103" id="X"/><g id="d"><use transform="matrix(0.09320987654320984,0,0,0.09320987654320984,0,0)" xlink:href="#S"/><use transform="matrix(0.09320987654320984,0,0,0.09320987654320984,24.141358024691346,0)" xlink:href="#T"/><use transform="matrix(0.09320987654320984,0,0,0.09320987654320984,42.78333333333332,0)" xlink:href="#U"/><use transform="matrix(0.09320987654320984,0,0,0.09320987654320984,61.425308641975285,0)" xlink:href="#V"/><use transform="matrix(0.09320987654320984,0,0,0.09320987654320984,80.06728395061725,0)" xlink:href="#W"/><use transform="matrix(0.09320987654320984,0,0,0.09320987654320984,89.38827160493824,0)" xlink:href="#X"/></g><path d="M185-189c-5-48-123-54-124 2 14 75 158 14 163 119 3 78-121 87-175 55-17-10-28-26-33-46l33-7c5 56 141 63 141-1 0-78-155-14-162-118-5-82 145-84 179-34 5 7 8 16 11 25" id="Y"/><path d="M115-194c55 1 70 41 70 98S169 2 115 4C84 4 66-9 55-30l1 105H24l-1-265h31l2 30c10-21 28-34 59-34zm-8 174c40 0 45-34 45-75s-6-73-45-74c-42 0-51 32-51 76 0 43 10 73 51 73" id="Z"/><path d="M96-169c-40 0-48 33-48 73s9 75 48 75c24 0 41-14 43-38l32 2c-6 37-31 61-74 61-59 0-76-41-82-99-10-93 101-131 147-64 4 7 5 14 7 22l-32 3c-4-21-16-35-41-35" id="aa"/><path d="M24-231v-30h32v30H24zM24 0v-190h32V0H24" id="ab"/><path d="M101-234c-31-9-42 10-38 44h38v23H63V0H32v-167H5v-23h27c-7-52 17-82 69-68v24" id="ac"/><path d="M179-190L93 31C79 59 56 82 12 73V49c39 6 53-20 64-50L1-190h34L92-34l54-156h33" id="ad"/><g id="e"><use transform="matrix(0.07469135802469135,0,0,0.07469135802469135,0,0)" xlink:href="#Y"/><use transform="matrix(0.07469135802469135,0,0,0.07469135802469135,17.925925925925924,0)" xlink:href="#Z"/><use transform="matrix(0.07469135802469135,0,0,0.07469135802469135,32.86419753086419,0)" xlink:href="#X"/><use transform="matrix(0.07469135802469135,0,0,0.07469135802469135,47.802469135802454,0)" xlink:href="#aa"/><use transform="matrix(0.07469135802469135,0,0,0.07469135802469135,61.2469135802469,0)" xlink:href="#ab"/><use transform="matrix(0.07469135802469135,0,0,0.07469135802469135,67.1475308641975,0)" xlink:href="#ac"/><use transform="matrix(0.07469135802469135,0,0,0.07469135802469135,74.61666666666665,0)" xlink:href="#ad"/></g><path d="M210-169c-67 3-38 105-44 169h-31v-121c0-29-5-50-35-48C34-165 62-65 56 0H25l-1-190h30c1 10-1 24 2 32 10-44 99-50 107 0 11-21 27-35 58-36 85-2 47 119 55 194h-31v-121c0-29-5-49-35-48" id="ae"/><g id="f"><use transform="matrix(0.07469135802469135,0,0,0.07469135802469135,0,0)" xlink:href="#W"/><use transform="matrix(0.07469135802469135,0,0,0.07469135802469135,7.469135802469134,0)" xlink:href="#ab"/><use transform="matrix(0.07469135802469135,0,0,0.07469135802469135,13.36975308641975,0)" xlink:href="#ae"/><use transform="matrix(0.07469135802469135,0,0,0.07469135802469135,35.70246913580246,0)" xlink:href="#X"/></g><path d="M33 0v-248h34V0H33" id="af"/><g id="g"><use transform="matrix(0.08086419753086417,0,0,0.08086419753086417,0,0)" xlink:href="#af"/><use transform="matrix(0.08086419753086417,0,0,0.08086419753086417,8.086419753086417,0)" xlink:href="#U"/><use transform="matrix(0.08086419753086417,0,0,0.08086419753086417,24.259259259259252,0)" xlink:href="#aa"/><use transform="matrix(0.08086419753086417,0,0,0.08086419753086417,38.8148148148148,0)" xlink:href="#T"/><use transform="matrix(0.08086419753086417,0,0,0.08086419753086417,54.98765432098764,0)" xlink:href="#ae"/><use transform="matrix(0.08086419753086417,0,0,0.08086419753086417,79.16604938271603,0)" xlink:href="#X"/></g><path fill="#333" d="M15-91v-56l181-69v40L49-119l147 57v40" id="ag"/><path fill="#333" d="M25-224v-37h50v37H25zM25 0v-190h50V0H25" id="ah"/><path fill="#333" d="M135-194c87-1 58 113 63 194h-50c-7-57 23-157-34-157-59 0-34 97-39 157H25l-1-190h47c2 12-1 28 3 38 12-26 28-41 61-42" id="ai"/><path fill="#333" d="M190-63c-7 42-38 67-86 67-59 0-84-38-90-98-12-110 154-137 174-36l-49 2c-2-19-15-32-35-32-30 0-35 28-38 64-6 74 65 87 74 30" id="aj"/><path fill="#333" d="M25 0v-261h50V0H25" id="ak"/><path fill="#333" d="M85 4C-2 5 27-109 22-190h50c7 57-23 150 33 157 60-5 35-97 40-157h50l1 190h-47c-2-12 1-28-3-38-12 25-28 42-61 42" id="al"/><path fill="#333" d="M88-194c31-1 46 15 58 34l-1-101h50l1 261h-48c-2-10 0-23-3-31C134-8 116 4 84 4 32 4 16-41 15-95c0-56 19-97 73-99zm17 164c33 0 40-30 41-66 1-37-9-64-41-64s-38 30-39 65c0 43 13 65 39 65" id="am"/><path fill="#333" d="M185-48c-13 30-37 53-82 52C43 2 14-33 14-96s30-98 90-98c62 0 83 45 84 108H66c0 31 8 55 39 56 18 0 30-7 34-22zm-45-69c5-46-57-63-70-21-2 6-4 13-4 21h74" id="an"/><path fill="#333" d="M137-138c1-29-70-34-71-4 15 46 118 7 119 86 1 83-164 76-172 9l43-7c4 19 20 25 44 25 33 8 57-30 24-41C81-84 22-81 20-136c-2-80 154-74 161-7" id="ao"/><path fill="#333" d="M15-22v-40l146-57-146-57v-40l181 69v56" id="ap"/><g id="h"><use transform="matrix(0.06172839506172839,0,0,0.06172839506172839,0,0)" xlink:href="#ag"/><use transform="matrix(0.06172839506172839,0,0,0.06172839506172839,12.962962962962962,0)" xlink:href="#ag"/><use transform="matrix(0.06172839506172839,0,0,0.06172839506172839,25.925925925925924,0)" xlink:href="#ah"/><use transform="matrix(0.06172839506172839,0,0,0.06172839506172839,32.098765432098766,0)" xlink:href="#ai"/><use transform="matrix(0.06172839506172839,0,0,0.06172839506172839,45.617283950617285,0)" xlink:href="#aj"/><use transform="matrix(0.06172839506172839,0,0,0.06172839506172839,57.96296296296296,0)" xlink:href="#ak"/><use transform="matrix(0.06172839506172839,0,0,0.06172839506172839,64.1358024691358,0)" xlink:href="#al"/><use transform="matrix(0.06172839506172839,0,0,0.06172839506172839,77.65432098765432,0)" xlink:href="#am"/><use transform="matrix(0.06172839506172839,0,0,0.06172839506172839,91.17283950617283,0)" xlink:href="#an"/><use transform="matrix(0.06172839506172839,0,0,0.06172839506172839,103.51851851851852,0)" xlink:href="#ao"/><use transform="matrix(0.06172839506172839,0,0,0.06172839506172839,115.8641975308642,0)" xlink:href="#ap"/><use transform="matrix(0.06172839506172839,0,0,0.06172839506172839,128.82716049382717,0)" xlink:href="#ap"/></g><path fill="#333" d="M63-220v92h138v28H63V0H30v-248h175v28H63" id="aq"/><path fill="#333" d="M96-169c-40 0-48 33-48 73s9 75 48 75c24 0 41-14 43-38l32 2c-6 37-31 61-74 61-59 0-76-41-82-99-10-93 101-131 147-64 4 7 5 14 7 22l-32 3c-4-21-16-35-41-35" id="ar"/><g id="i"><use transform="matrix(0.08641975308641976,0,0,0.08641975308641976,0,0)" xlink:href="#aq"/><use transform="matrix(0.08641975308641976,0,0,0.08641975308641976,18.925925925925927,0)" xlink:href="#I"/><use transform="matrix(0.08641975308641976,0,0,0.08641975308641976,25.75308641975309,0)" xlink:href="#N"/><use transform="matrix(0.08641975308641976,0,0,0.08641975308641976,43.03703703703704,0)" xlink:href="#G"/><use transform="matrix(0.08641975308641976,0,0,0.08641975308641976,60.32098765432099,0)" xlink:href="#N"/><use transform="matrix(0.08641975308641976,0,0,0.08641975308641976,77.60493827160494,0)" xlink:href="#ar"/><use transform="matrix(0.08641975308641976,0,0,0.08641975308641976,93.16049382716048,0)" xlink:href="#R"/></g><path d="M205 0l-28-72H64L36 0H1l101-248h38L239 0h-34zm-38-99l-47-123c-12 45-31 82-46 123h93" id="as"/><g id="j"><use transform="matrix(0.08703703703703701,0,0,0.08703703703703701,0,0)" xlink:href="#as"/><use transform="matrix(0.08703703703703701,0,0,0.08703703703703701,20.888888888888882,0)" xlink:href="#aa"/><use transform="matrix(0.08703703703703701,0,0,0.08703703703703701,36.55555555555554,0)" xlink:href="#W"/><use transform="matrix(0.08703703703703701,0,0,0.08703703703703701,45.259259259259245,0)" xlink:href="#ab"/><use transform="matrix(0.08703703703703701,0,0,0.08703703703703701,52.13518518518517,0)" xlink:href="#T"/><use transform="matrix(0.08703703703703701,0,0,0.08703703703703701,69.54259259259257,0)" xlink:href="#U"/></g><path fill="#333" d="M144 0l-44-69L55 0H2l70-98-66-92h53l41 62 40-62h54l-67 91 71 99h-54" id="at"/><path fill="#333" d="M115-3C79 11 28 4 28-45v-112H4v-33h27l15-45h31v45h36v33H77v99c-1 23 16 31 38 25v30" id="au"/><g id="k"><use transform="matrix(0.06172839506172839,0,0,0.06172839506172839,0,0)" xlink:href="#ag"/><use transform="matrix(0.06172839506172839,0,0,0.06172839506172839,12.962962962962962,0)" xlink:href="#ag"/><use transform="matrix(0.06172839506172839,0,0,0.06172839506172839,25.925925925925924,0)" xlink:href="#an"/><use transform="matrix(0.06172839506172839,0,0,0.06172839506172839,38.2716049382716,0)" xlink:href="#at"/><use transform="matrix(0.06172839506172839,0,0,0.06172839506172839,50.61728395061728,0)" xlink:href="#au"/><use transform="matrix(0.06172839506172839,0,0,0.06172839506172839,57.962962962962955,0)" xlink:href="#an"/><use transform="matrix(0.06172839506172839,0,0,0.06172839506172839,70.30864197530863,0)" xlink:href="#ai"/><use transform="matrix(0.06172839506172839,0,0,0.06172839506172839,83.82716049382715,0)" xlink:href="#am"/><use transform="matrix(0.06172839506172839,0,0,0.06172839506172839,97.34567901234567,0)" xlink:href="#ao"/><use transform="matrix(0.06172839506172839,0,0,0.06172839506172839,109.69135802469135,0)" xlink:href="#ap"/><use transform="matrix(0.06172839506172839,0,0,0.06172839506172839,122.65432098765432,0)" xlink:href="#ap"/></g><path fill="#333" d="M137 0h-34L2-248h35l83 218 83-218h36" id="av"/><path fill="#333" d="M24 0v-261h32V0H24" id="aw"/><path fill="#333" d="M84 4C-5 8 30-112 23-190h32v120c0 31 7 50 39 49 72-2 45-101 50-169h31l1 190h-30c-1-10 1-25-2-33-11 22-28 36-60 37" id="ax"/><g id="l"><use transform="matrix(0.08641975308641976,0,0,0.08641975308641976,0,0)" xlink:href="#av"/><use transform="matrix(0.08641975308641976,0,0,0.08641975308641976,19.01234567901235,0)" xlink:href="#M"/><use transform="matrix(0.08641975308641976,0,0,0.08641975308641976,36.296296296296305,0)" xlink:href="#aw"/><use transform="matrix(0.08641975308641976,0,0,0.08641975308641976,43.12345679012347,0)" xlink:href="#ax"/><use transform="matrix(0.08641975308641976,0,0,0.08641975308641976,60.407407407407426,0)" xlink:href="#N"/><use transform="matrix(0.08641975308641976,0,0,0.08641975308641976,77.69135802469137,0)" xlink:href="#J"/><use transform="matrix(0.08641975308641976,0,0,0.08641975308641976,86.33333333333334,0)" xlink:href="#R"/><use transform="matrix(0.08641975308641976,0,0,0.08641975308641976,103.61728395061729,0)" xlink:href="#R"/><use transform="matrix(0.08641975308641976,0,0,0.08641975308641976,120.90123456790124,0)" xlink:href="#H"/></g><path fill="#333" d="M135-143c-3-34-86-38-87 0 15 53 115 12 119 90S17 21 10-45l28-5c4 36 97 45 98 0-10-56-113-15-118-90-4-57 82-63 122-42 12 7 21 19 24 35" id="ay"/><g id="m"><use transform="matrix(0.08641975308641976,0,0,0.08641975308641976,0,0)" xlink:href="#E"/><use transform="matrix(0.08641975308641976,0,0,0.08641975308641976,22.38271604938272,0)" xlink:href="#G"/><use transform="matrix(0.08641975308641976,0,0,0.08641975308641976,39.66666666666667,0)" xlink:href="#ay"/><use transform="matrix(0.08641975308641976,0,0,0.08641975308641976,55.22222222222223,0)" xlink:href="#R"/></g><path d="M30 0v-248h33v221h125V0H30" id="az"/><path d="M177-190C167-65 218 103 67 71c-23-6-38-20-44-43l32-5c15 47 100 32 89-28v-30C133-14 115 1 83 1 29 1 15-40 15-95c0-56 16-97 71-98 29-1 48 16 59 35 1-10 0-23 2-32h30zM94-22c36 0 50-32 50-73 0-42-14-75-50-75-39 0-46 34-46 75s6 73 46 73" id="aA"/><path d="M135-143c-3-34-86-38-87 0 15 53 115 12 119 90S17 21 10-45l28-5c4 36 97 45 98 0-10-56-113-15-118-90-4-57 82-63 122-42 12 7 21 19 24 35" id="aB"/><g id="n"><use transform="matrix(0.08086419753086417,0,0,0.08086419753086417,0,0)" xlink:href="#az"/><use transform="matrix(0.08086419753086417,0,0,0.08086419753086417,16.172839506172835,0)" xlink:href="#T"/><use transform="matrix(0.08086419753086417,0,0,0.08086419753086417,32.34567901234567,0)" xlink:href="#aA"/><use transform="matrix(0.08086419753086417,0,0,0.08086419753086417,48.518518518518505,0)" xlink:href="#ab"/><use transform="matrix(0.08086419753086417,0,0,0.08086419753086417,54.90679012345677,0)" xlink:href="#aB"/><use transform="matrix(0.08086419753086417,0,0,0.08086419753086417,69.46234567901232,0)" xlink:href="#W"/><use transform="matrix(0.08086419753086417,0,0,0.08086419753086417,77.54876543209873,0)" xlink:href="#ab"/><use transform="matrix(0.08086419753086417,0,0,0.08086419753086417,83.93703703703702,0)" xlink:href="#aa"/><use transform="matrix(0.08086419753086417,0,0,0.08086419753086417,98.49259259259256,0)" xlink:href="#aB"/></g><path d="M141 0L90-78 38 0H4l68-98-65-92h35l48 74 47-74h35l-64 92 68 98h-35" id="aC"/><path d="M24 0v-261h32V0H24" id="aD"/><path d="M114-163C36-179 61-72 57 0H25l-1-190h30c1 12-1 29 2 39 6-27 23-49 58-41v29" id="aE"/><g id="o"><use transform="matrix(0.08086419753086417,0,0,0.08086419753086417,0,0)" xlink:href="#X"/><use transform="matrix(0.08086419753086417,0,0,0.08086419753086417,16.172839506172835,0)" xlink:href="#aC"/><use transform="matrix(0.08086419753086417,0,0,0.08086419753086417,30.728395061728385,0)" xlink:href="#Z"/><use transform="matrix(0.08086419753086417,0,0,0.08086419753086417,46.90123456790122,0)" xlink:href="#aD"/><use transform="matrix(0.08086419753086417,0,0,0.08086419753086417,53.28950617283949,0)" xlink:href="#T"/><use transform="matrix(0.08086419753086417,0,0,0.08086419753086417,69.46234567901232,0)" xlink:href="#aE"/><use transform="matrix(0.08086419753086417,0,0,0.08086419753086417,79.08518518518515,0)" xlink:href="#X"/></g><g id="p"><use transform="matrix(0.08024691358024691,0,0,0.08024691358024691,0,0)" xlink:href="#ag"/><use transform="matrix(0.08024691358024691,0,0,0.08024691358024691,16.85185185185185,0)" xlink:href="#ag"/><use transform="matrix(0.08024691358024691,0,0,0.08024691358024691,33.7037037037037,0)" xlink:href="#an"/><use transform="matrix(0.08024691358024691,0,0,0.08024691358024691,49.753086419753096,0)" xlink:href="#at"/><use transform="matrix(0.08024691358024691,0,0,0.08024691358024691,65.80246913580247,0)" xlink:href="#au"/><use transform="matrix(0.08024691358024691,0,0,0.08024691358024691,75.35185185185185,0)" xlink:href="#an"/><use transform="matrix(0.08024691358024691,0,0,0.08024691358024691,91.40123456790123,0)" xlink:href="#ai"/><use transform="matrix(0.08024691358024691,0,0,0.08024691358024691,108.9753086419753,0)" xlink:href="#am"/><use transform="matrix(0.08024691358024691,0,0,0.08024691358024691,126.54938271604938,0)" xlink:href="#ap"/><use transform="matrix(0.08024691358024691,0,0,0.08024691358024691,143.40123456790124,0)" xlink:href="#ap"/></g><path d="M85-194c31 0 48 13 60 33l-1-100h32l1 261h-30c-2-10 0-23-3-31C134-8 116 4 85 4 32 4 16-35 15-94c0-66 23-100 70-100zm9 24c-40 0-46 34-46 75 0 40 6 74 45 74 42 0 51-32 51-76 0-42-9-74-50-73" id="aF"/><g id="q"><use transform="matrix(0.08086419753086417,0,0,0.08086419753086417,0,0)" xlink:href="#U"/><use transform="matrix(0.08086419753086417,0,0,0.08086419753086417,16.172839506172835,0)" xlink:href="#X"/><use transform="matrix(0.08086419753086417,0,0,0.08086419753086417,32.34567901234567,0)" xlink:href="#X"/><use transform="matrix(0.08086419753086417,0,0,0.08086419753086417,48.518518518518505,0)" xlink:href="#aF"/></g><g id="r"><use transform="matrix(0.08086419753086417,0,0,0.08086419753086417,0,0)" xlink:href="#ae"/><use transform="matrix(0.08086419753086417,0,0,0.08086419753086417,24.178395061728388,0)" xlink:href="#T"/><use transform="matrix(0.08086419753086417,0,0,0.08086419753086417,40.35123456790122,0)" xlink:href="#U"/><use transform="matrix(0.08086419753086417,0,0,0.08086419753086417,56.52407407407406,0)" xlink:href="#X"/><use transform="matrix(0.08086419753086417,0,0,0.08086419753086417,72.6969135802469,0)" xlink:href="#ad"/></g><g id="s"><use transform="matrix(0.07407407407407406,0,0,0.07407407407407406,0,0)" xlink:href="#ag"/><use transform="matrix(0.07407407407407406,0,0,0.07407407407407406,15.555555555555552,0)" xlink:href="#ag"/><use transform="matrix(0.07407407407407406,0,0,0.07407407407407406,31.111111111111104,0)" xlink:href="#an"/><use transform="matrix(0.07407407407407406,0,0,0.07407407407407406,45.92592592592592,0)" xlink:href="#at"/><use transform="matrix(0.07407407407407406,0,0,0.07407407407407406,60.740740740740726,0)" xlink:href="#au"/><use transform="matrix(0.07407407407407406,0,0,0.07407407407407406,69.55555555555554,0)" xlink:href="#an"/><use transform="matrix(0.07407407407407406,0,0,0.07407407407407406,84.37037037037035,0)" xlink:href="#ai"/><use transform="matrix(0.07407407407407406,0,0,0.07407407407407406,100.59259259259257,0)" xlink:href="#am"/><use transform="matrix(0.07407407407407406,0,0,0.07407407407407406,116.81481481481478,0)" xlink:href="#ap"/><use transform="matrix(0.07407407407407406,0,0,0.07407407407407406,132.37037037037032,0)" xlink:href="#ap"/></g><path d="M84 4C-5 8 30-112 23-190h32v120c0 31 7 50 39 49 72-2 45-101 50-169h31l1 190h-30c-1-10 1-25-2-33-11 22-28 36-60 37" id="aG"/><g id="t"><use transform="matrix(0.08086419753086417,0,0,0.08086419753086417,0,0)" xlink:href="#T"/><use transform="matrix(0.08086419753086417,0,0,0.08086419753086417,16.172839506172835,0)" xlink:href="#aG"/><use transform="matrix(0.08086419753086417,0,0,0.08086419753086417,32.34567901234567,0)" xlink:href="#W"/><use transform="matrix(0.08086419753086417,0,0,0.08086419753086417,40.43209876543209,0)" xlink:href="#aa"/><use transform="matrix(0.08086419753086417,0,0,0.08086419753086417,54.98765432098764,0)" xlink:href="#T"/><use transform="matrix(0.08086419753086417,0,0,0.08086419753086417,71.16049382716048,0)" xlink:href="#ae"/><use transform="matrix(0.08086419753086417,0,0,0.08086419753086417,95.33888888888887,0)" xlink:href="#X"/></g><path d="M206 0h-36l-40-164L89 0H53L-1-190h32L70-26l43-164h34l41 164 42-164h31" id="aH"/><g id="u"><use transform="matrix(0.08086419753086417,0,0,0.08086419753086417,0,0)" xlink:href="#ac"/><use transform="matrix(0.08086419753086417,0,0,0.08086419753086417,8.086419753086417,0)" xlink:href="#T"/><use transform="matrix(0.08086419753086417,0,0,0.08086419753086417,24.259259259259252,0)" xlink:href="#aD"/><use transform="matrix(0.08086419753086417,0,0,0.08086419753086417,30.64753086419752,0)" xlink:href="#aD"/><use transform="matrix(0.08086419753086417,0,0,0.08086419753086417,37.03580246913579,0)" xlink:href="#T"/><use transform="matrix(0.08086419753086417,0,0,0.08086419753086417,53.20864197530862,0)" xlink:href="#aH"/></g><g id="v"><use transform="matrix(0.08086419753086417,0,0,0.08086419753086417,0,0)" xlink:href="#aG"/><use transform="matrix(0.08086419753086417,0,0,0.08086419753086417,16.172839506172835,0)" xlink:href="#Z"/></g><g id="w"><use transform="matrix(0.08641975308641973,0,0,0.08641975308641973,0,0)" xlink:href="#ag"/><use transform="matrix(0.08641975308641973,0,0,0.08641975308641973,18.148148148148145,0)" xlink:href="#ag"/><use transform="matrix(0.08641975308641973,0,0,0.08641975308641973,36.29629629629629,0)" xlink:href="#an"/><use transform="matrix(0.08641975308641973,0,0,0.08641975308641973,53.58024691358023,0)" xlink:href="#at"/><use transform="matrix(0.08641975308641973,0,0,0.08641975308641973,70.86419753086419,0)" xlink:href="#au"/><use transform="matrix(0.08641975308641973,0,0,0.08641975308641973,81.14814814814814,0)" xlink:href="#an"/><use transform="matrix(0.08641975308641973,0,0,0.08641975308641973,98.4320987654321,0)" xlink:href="#ai"/><use transform="matrix(0.08641975308641973,0,0,0.08641975308641973,117.35802469135803,0)" xlink:href="#am"/><use transform="matrix(0.08641975308641973,0,0,0.08641975308641973,136.28395061728392,0)" xlink:href="#ap"/><use transform="matrix(0.08641975308641973,0,0,0.08641975308641973,154.43209876543207,0)" xlink:href="#ap"/></g><path fill="#333" d="M30 0v-248h187v28H63v79h144v27H63v87h162V0H30" id="aI"/><path fill="#333" d="M141 0L90-78 38 0H4l68-98-65-92h35l48 74 47-74h35l-64 92 68 98h-35" id="aJ"/><g id="x"><use transform="matrix(0.08641975308641976,0,0,0.08641975308641976,0,0)" xlink:href="#aI"/><use transform="matrix(0.08641975308641976,0,0,0.08641975308641976,20.740740740740744,0)" xlink:href="#aJ"/><use transform="matrix(0.08641975308641976,0,0,0.08641975308641976,36.296296296296305,0)" xlink:href="#J"/><use transform="matrix(0.08641975308641976,0,0,0.08641975308641976,44.93827160493828,0)" xlink:href="#R"/><use transform="matrix(0.08641975308641976,0,0,0.08641975308641976,62.22222222222223,0)" xlink:href="#H"/><use transform="matrix(0.08641975308641976,0,0,0.08641975308641976,72.50617283950618,0)" xlink:href="#N"/><use transform="matrix(0.08641975308641976,0,0,0.08641975308641976,89.79012345679013,0)" xlink:href="#G"/><use transform="matrix(0.08641975308641976,0,0,0.08641975308641976,107.07407407407409,0)" xlink:href="#aw"/></g><path fill="#333" d="M115-194c55 1 70 41 70 98S169 2 115 4C84 4 66-9 55-30l1 105H24l-1-265h31l2 30c10-21 28-34 59-34zm-8 174c40 0 45-34 45-75s-6-73-45-74c-42 0-51 32-51 76 0 43 10 73 51 73" id="aK"/><g id="y"><use transform="matrix(0.08641975308641976,0,0,0.08641975308641976,0,0)" xlink:href="#M"/><use transform="matrix(0.08641975308641976,0,0,0.08641975308641976,17.283950617283953,0)" xlink:href="#aK"/><use transform="matrix(0.08641975308641976,0,0,0.08641975308641976,34.567901234567906,0)" xlink:href="#R"/><use transform="matrix(0.08641975308641976,0,0,0.08641975308641976,51.851851851851855,0)" xlink:href="#H"/><use transform="matrix(0.08641975308641976,0,0,0.08641975308641976,62.13580246913581,0)" xlink:href="#G"/><use transform="matrix(0.08641975308641976,0,0,0.08641975308641976,79.41975308641976,0)" xlink:href="#J"/><use transform="matrix(0.08641975308641976,0,0,0.08641975308641976,88.06172839506173,0)" xlink:href="#I"/><use transform="matrix(0.08641975308641976,0,0,0.08641975308641976,94.8888888888889,0)" xlink:href="#M"/><use transform="matrix(0.08641975308641976,0,0,0.08641975308641976,112.17283950617285,0)" xlink:href="#N"/><use transform="matrix(0.08641975308641976,0,0,0.08641975308641976,129.4567901234568,0)" xlink:href="#ay"/></g><path fill="#333" d="M67-125c0 53 21 87 73 88 37 1 54-22 65-47l45 17C233-25 199 4 140 4 58 4 20-42 15-125 8-235 124-281 211-232c18 10 29 29 36 50l-46 12c-8-25-30-41-62-41-52 0-71 34-72 86" id="aL"/><path fill="#333" d="M114-157C55-157 80-60 75 0H25v-261h50l-1 109c12-26 28-41 61-42 86-1 58 113 63 194h-50c-7-57 23-157-34-157" id="aM"/><path fill="#333" d="M133-34C117-15 103 5 69 4 32 3 11-16 11-54c-1-60 55-63 116-61 1-26-3-47-28-47-18 1-26 9-28 27l-52-2c7-38 36-58 82-57s74 22 75 68l1 82c-1 14 12 18 25 15v27c-30 8-71 5-69-32zm-48 3c29 0 43-24 42-57-32 0-66-3-65 30 0 17 8 27 23 27" id="aN"/><path fill="#333" d="M135-150c-39-12-60 13-60 57V0H25l-1-190h47c2 13-1 29 3 40 6-28 27-53 61-41v41" id="aO"/><path fill="#333" d="M123 10C108 53 80 86 19 72V37c35 8 53-11 59-39L3-190h52l48 148c12-52 28-100 44-148h51" id="aP"/><g id="z"><use transform="matrix(0.2222222222222222,0,0,0.2222222222222222,0,0)" xlink:href="#aL"/><use transform="matrix(0.2222222222222222,0,0,0.2222222222222222,57.55555555555555,0)" xlink:href="#aM"/><use transform="matrix(0.2222222222222222,0,0,0.2222222222222222,106.22222222222221,0)" xlink:href="#aN"/><use transform="matrix(0.2222222222222222,0,0,0.2222222222222222,150.66666666666666,0)" xlink:href="#aO"/><use transform="matrix(0.2222222222222222,0,0,0.2222222222222222,181.77777777777777,0)" xlink:href="#ah"/><use transform="matrix(0.2222222222222222,0,0,0.2222222222222222,204,0)" xlink:href="#au"/><use transform="matrix(0.2222222222222222,0,0,0.2222222222222222,230.44444444444449,0)" xlink:href="#aP"/></g><path fill="#333" d="M169-182c-1-43-94-46-97-3 18 66 151 10 154 114 3 95-165 93-204 36-6-8-10-19-12-30l50-8c3 46 112 56 116 5-17-69-150-10-154-114-4-87 153-88 188-35 5 8 8 18 10 28" id="aQ"/><path fill="#333" d="M220-157c-53 9-28 100-34 157h-49v-107c1-27-5-49-29-50C55-147 81-57 75 0H25l-1-190h47c2 12-1 28 3 38 10-53 101-56 108 0 13-22 24-43 59-42 82 1 51 116 57 194h-49v-107c-1-25-5-48-29-50" id="aR"/><g id="A"><use transform="matrix(0.2222222222222222,0,0,0.2222222222222222,0,0)" xlink:href="#aQ"/><use transform="matrix(0.2222222222222222,0,0,0.2222222222222222,53.33333333333333,0)" xlink:href="#aP"/><use transform="matrix(0.2222222222222222,0,0,0.2222222222222222,97.77777777777777,0)" xlink:href="#ao"/><use transform="matrix(0.2222222222222222,0,0,0.2222222222222222,142.22222222222223,0)" xlink:href="#au"/><use transform="matrix(0.2222222222222222,0,0,0.2222222222222222,168.66666666666669,0)" xlink:href="#an"/><use transform="matrix(0.2222222222222222,0,0,0.2222222222222222,213.11111111111114,0)" xlink:href="#aR"/></g><path fill="#333" d="M238-95c0 69-44 99-111 99C63 4 22-25 22-93v-155h51v151c-1 38 19 59 55 60 90 1 49-130 58-211h52v153" id="aS"/><g id="B"><use transform="matrix(0.2222222222222222,0,0,0.2222222222222222,0,0)" xlink:href="#aS"/><use transform="matrix(0.2222222222222222,0,0,0.2222222222222222,57.55555555555555,0)" xlink:href="#ao"/><use transform="matrix(0.2222222222222222,0,0,0.2222222222222222,102,0)" xlink:href="#an"/></g><g id="C"><use transform="matrix(0.2222222222222222,0,0,0.2222222222222222,0,0)" xlink:href="#aL"/><use transform="matrix(0.2222222222222222,0,0,0.2222222222222222,57.55555555555555,0)" xlink:href="#aN"/><use transform="matrix(0.2222222222222222,0,0,0.2222222222222222,102,0)" xlink:href="#ao"/><use transform="matrix(0.2222222222222222,0,0,0.2222222222222222,146.44444444444446,0)" xlink:href="#an"/></g><path fill="#333" d="M24-248c120-7 223 5 221 122C244-46 201 0 124 0H24v-248zM76-40c74 7 117-18 117-86 0-67-45-88-117-82v168" id="aT"/><path fill="#333" d="M195-6C206 82 75 100 31 46c-4-6-6-13-8-21l49-6c3 16 16 24 34 25 40 0 42-37 40-79-11 22-30 35-61 35-53 0-70-43-70-97 0-56 18-96 73-97 30 0 46 14 59 34l2-30h47zm-90-29c32 0 41-27 41-63 0-35-9-62-40-62-32 0-39 29-40 63 0 36 9 62 39 62" id="aU"/><g id="D"><use transform="matrix(0.2222222222222222,0,0,0.2222222222222222,0,0)" xlink:href="#aT"/><use transform="matrix(0.2222222222222222,0,0,0.2222222222222222,57.55555555555555,0)" xlink:href="#ah"/><use transform="matrix(0.2222222222222222,0,0,0.2222222222222222,79.77777777777777,0)" xlink:href="#aU"/><use transform="matrix(0.2222222222222222,0,0,0.2222222222222222,128.44444444444443,0)" xlink:href="#aO"/><use transform="matrix(0.2222222222222222,0,0,0.2222222222222222,159.55555555555554,0)" xlink:href="#aN"/><use transform="matrix(0.2222222222222222,0,0,0.2222222222222222,204,0)" xlink:href="#aR"/></g></defs></g></svg>